# xmcd
# Track frame offsets:
#	150
#	22081
#	43536
#	70445
#	76143
#	95311
#	115503
#	134292
#	152168
#	173113
#
# Disc length: 2640 seconds
# Revision: 2
# Processed by: cddbd v1.5.1PL0 Copyright (c) Steve Scherf et al.
# Submitted via: freedbtool 1.11
#
DISCID=780a4e0a
DTITLE=3 Daft Monkeys - Hubbadillia
DYEAR=2004
DGENRE=Folk
TTITLE0=Hubbadillia
TTITLE1=Hey Listen
TTITLE2=Tres Cervezas!
TTITLE3=Air
TTITLE4=Astral Eyes
TTITLE5=Bubbles
TTITLE6=The Man
TTITLE7=Stop
TTITLE8=Timeless
TTITLE9=Does my head in
EXTD=
EXTT0=
EXTT1=
EXTT2=
EXTT3=
EXTT4=
EXTT5=
EXTT6=
EXTT7=
EXTT8=
EXTT9=
PLAYORDER=
